<mxfile host="app.diagrams.net" modified="2024-05-14T08:42:03.479Z" agent="Mozilla/5.0 (Macintosh; Intel Mac OS X 10_15_7) AppleWebKit/537.36 (KHTML, like Gecko) Chrome/124.0.0.0 Safari/537.36" etag="HctpeYwAr4ePJuEdRLm_" version="24.4.0" type="github">
  <diagram id="07fea595-8f29-1299-0266-81d95cde20df" name="Page-1">
    <mxGraphModel dx="1140" dy="761" grid="1" gridSize="10" guides="1" tooltips="1" connect="1" arrows="1" fold="1" page="1" pageScale="1" pageWidth="1169" pageHeight="827" background="#ffffff" math="0" shadow="0">
      <root>
        <mxCell id="0" />
        <mxCell id="1" parent="0" />
        <mxCell id="170" value="&lt;font color=&quot;#23497d&quot;&gt;指标统计&lt;/font&gt;" style="swimlane;whiteSpace=wrap;fillColor=none;swimlaneFillColor=#BAC8D3;fontColor=#2F5B7C;fontFamily=Tahoma;html=1;strokeColor=none;opacity=50;" parent="1" vertex="1">
          <mxGeometry x="24.5" y="88.5" width="160" height="650" as="geometry">
            <mxRectangle x="20" y="20" width="80" height="23" as="alternateBounds" />
          </mxGeometry>
        </mxCell>
        <mxCell id="171" value="指标趋势" style="whiteSpace=wrap;shadow=0;fontColor=#FFFFFF;fontFamily=Helvetica;fontStyle=0;html=1;fontSize=12;plain-purple;strokeColor=none;fillColor=#2f5b7c;gradientColor=none;spacing=6;verticalAlign=middle;" parent="170" vertex="1">
          <mxGeometry x="20" y="60" width="120" height="60" as="geometry" />
        </mxCell>
        <mxCell id="172" value="指标" style="whiteSpace=wrap;strokeColor=none;fillColor=#2f5b7c;shadow=0;fontColor=#FFFFFF;fontFamily=Helvetica;fontStyle=0;html=1;fontSize=12;spacing=6;verticalAlign=middle;" parent="170" vertex="1">
          <mxGeometry x="20" y="375" width="120" height="60" as="geometry" />
        </mxCell>
        <mxCell id="173" value="Price Management" style="whiteSpace=wrap;strokeColor=none;fillColor=#2f5b7c;shadow=0;fontColor=#FFFFFF;fontFamily=Helvetica;fontStyle=0;html=1;fontSize=12;spacing=6;verticalAlign=middle;" parent="170" vertex="1">
          <mxGeometry x="20" y="485" width="120" height="60" as="geometry" />
        </mxCell>
        <mxCell id="174" value="" style="edgeStyle=segmentEdgeStyle;strokeColor=#2F5B7C;strokeWidth=3;html=1;endArrow=block;endFill=1;" parent="170" source="172" target="173" edge="1">
          <mxGeometry width="100" height="100" relative="1" as="geometry">
            <mxPoint x="170" y="397.5" as="sourcePoint" />
            <mxPoint x="270" y="472.5" as="targetPoint" />
          </mxGeometry>
        </mxCell>
        <mxCell id="175" value="" style="edgeStyle=segmentEdgeStyle;strokeColor=#2F5B7C;strokeWidth=3;html=1;endArrow=block;endFill=1;" parent="170" source="171" target="172" edge="1">
          <mxGeometry width="100" height="100" relative="1" as="geometry">
            <mxPoint x="160" y="110" as="sourcePoint" />
            <mxPoint x="260" y="185" as="targetPoint" />
          </mxGeometry>
        </mxCell>
        <mxCell id="176" value="&lt;font color=&quot;#23497d&quot;&gt;归因分析存储&lt;/font&gt;" style="swimlane;whiteSpace=wrap;fillColor=none;swimlaneFillColor=#BAC8D3;fontColor=#2F5B7C;fontFamily=Tahoma;html=1;strokeColor=none;opacity=25;" parent="1" vertex="1">
          <mxGeometry x="824.5" y="88.5" width="160" height="650" as="geometry">
            <mxRectangle x="20" y="20" width="80" height="23" as="alternateBounds" />
          </mxGeometry>
        </mxCell>
        <mxCell id="177" value="Sales Contract" style="shape=document;whiteSpace=wrap;verticalAlign=middle;strokeColor=none;fillColor=#12aab5;shadow=0;fontColor=#FFFFFF;fontFamily=Helvetica;fontStyle=0;html=1;fontSize=12;spacing=6;spacingBottom=22;" parent="176" vertex="1">
          <mxGeometry x="20" y="50" width="120" height="80" as="geometry" />
        </mxCell>
        <mxCell id="kB9sU5k_vF1AV_SdbhMd-236" value="Influxdb" style="whiteSpace=wrap;strokeColor=none;fillColor=#2f5b7c;shadow=0;fontColor=#FFFFFF;fontFamily=Helvetica;fontStyle=0;html=1;fontSize=12;spacing=6;verticalAlign=middle;" vertex="1" parent="176">
          <mxGeometry x="35.5" y="211.5" width="120" height="60" as="geometry" />
        </mxCell>
        <mxCell id="180" value="&lt;font color=&quot;#23497d&quot;&gt;根因维度下探&lt;/font&gt;" style="swimlane;whiteSpace=wrap;fillColor=none;swimlaneFillColor=#BAC8D3;fontColor=#2F5B7C;fontFamily=Tahoma;html=1;strokeColor=none;opacity=50;" parent="1" vertex="1">
          <mxGeometry x="670" y="88" width="160" height="650" as="geometry">
            <mxRectangle x="20" y="20" width="80" height="23" as="alternateBounds" />
          </mxGeometry>
        </mxCell>
        <mxCell id="182" value="Adtributor" style="whiteSpace=wrap;strokeColor=none;fillColor=#2f5b7c;shadow=0;fontColor=#FFFFFF;fontFamily=Helvetica;fontStyle=0;html=1;fontSize=12;spacing=6;verticalAlign=middle;" parent="180" vertex="1">
          <mxGeometry x="20" y="220" width="120" height="60" as="geometry" />
        </mxCell>
        <mxCell id="kB9sU5k_vF1AV_SdbhMd-230" value="迭代Adtributor" style="whiteSpace=wrap;fillColor=#2f5b7c;strokeColor=none;shadow=0;fontColor=#FFFFFF;fontFamily=Helvetica;fontStyle=0;html=1;fontSize=12;spacing=6;verticalAlign=middle;" vertex="1" parent="180">
          <mxGeometry x="20" y="365.5" width="120" height="60" as="geometry" />
        </mxCell>
        <mxCell id="kB9sU5k_vF1AV_SdbhMd-231" value="" style="edgeStyle=segmentEdgeStyle;strokeColor=#2F5B7C;strokeWidth=3;html=1;endArrow=block;endFill=1;entryX=0.5;entryY=0;entryDx=0;entryDy=0;" edge="1" parent="180" target="kB9sU5k_vF1AV_SdbhMd-230">
          <mxGeometry x="-545.5" y="132" width="100" height="100" as="geometry">
            <mxPoint x="80" y="272" as="sourcePoint" />
            <mxPoint x="70" y="375.5" as="targetPoint" />
            <Array as="points">
              <mxPoint x="80" y="282" />
            </Array>
          </mxGeometry>
        </mxCell>
        <mxCell id="kB9sU5k_vF1AV_SdbhMd-234" value="根因纬度集" style="shape=document;whiteSpace=wrap;strokeColor=none;fillColor=#12aab5;shadow=0;fontColor=#FFFFFF;fontFamily=Helvetica;fontStyle=0;html=1;fontSize=12;verticalAlign=middle;spacing=6;spacingBottom=22;" vertex="1" parent="180">
          <mxGeometry x="20" y="482" width="120" height="80" as="geometry" />
        </mxCell>
        <mxCell id="kB9sU5k_vF1AV_SdbhMd-235" value="" style="strokeColor=#12AAB5;strokeWidth=3;html=1;endArrow=block;endFill=1;entryX=0.5;entryY=0;entryDx=0;entryDy=0;exitX=0.5;exitY=1;exitDx=0;exitDy=0;" edge="1" parent="180" source="kB9sU5k_vF1AV_SdbhMd-230" target="kB9sU5k_vF1AV_SdbhMd-234">
          <mxGeometry width="100" height="100" relative="1" as="geometry">
            <mxPoint x="-90" y="435.5" as="sourcePoint" />
            <mxPoint x="-90" y="482.5" as="targetPoint" />
          </mxGeometry>
        </mxCell>
        <mxCell id="183" value="&lt;font color=&quot;#23497d&quot;&gt;周期突变检查&lt;/font&gt;" style="swimlane;whiteSpace=wrap;fillColor=none;swimlaneFillColor=#BAC8D3;fontColor=#2F5B7C;fontFamily=Tahoma;html=1;strokeColor=none;opacity=25;" parent="1" vertex="1">
          <mxGeometry x="184.5" y="88.5" width="160" height="650" as="geometry">
            <mxRectangle x="20" y="20" width="80" height="23" as="alternateBounds" />
          </mxGeometry>
        </mxCell>
        <mxCell id="184" value="周期发现与拟合" style="whiteSpace=wrap;shadow=0;fontColor=#FFFFFF;fontFamily=Helvetica;fontStyle=0;html=1;fontSize=12;plain-purple;strokeColor=none;fillColor=#2f5b7c;gradientColor=none;spacing=6;verticalAlign=middle;" parent="183" vertex="1">
          <mxGeometry x="20" y="165" width="120" height="60" as="geometry" />
        </mxCell>
        <mxCell id="185" value="周期异常信息" style="shape=document;whiteSpace=wrap;verticalAlign=middle;strokeColor=none;fillColor=#12aab5;shadow=0;fontColor=#FFFFFF;fontFamily=Helvetica;fontStyle=0;html=1;fontSize=12;spacing=6;spacingBottom=22;" parent="183" vertex="1">
          <mxGeometry x="20" y="265" width="120" height="80" as="geometry" />
        </mxCell>
        <mxCell id="186" value="" style="edgeStyle=segmentEdgeStyle;strokeColor=#2F5B7C;strokeWidth=3;html=1;endArrow=block;endFill=1;" parent="183" source="184" target="185" edge="1">
          <mxGeometry width="100" height="100" relative="1" as="geometry">
            <mxPoint x="-10" y="100" as="sourcePoint" />
            <mxPoint x="90" y="175" as="targetPoint" />
          </mxGeometry>
        </mxCell>
        <mxCell id="187" value="&lt;font color=&quot;#23497d&quot;&gt;趋势突变检测&lt;/font&gt;" style="swimlane;whiteSpace=wrap;fillColor=none;swimlaneFillColor=#BAC8D3;fontColor=#2F5B7C;fontFamily=Tahoma;html=1;strokeColor=none;opacity=50;" parent="1" vertex="1">
          <mxGeometry x="344.5" y="88.5" width="160" height="650" as="geometry">
            <mxRectangle x="20" y="20" width="80" height="23" as="alternateBounds" />
          </mxGeometry>
        </mxCell>
        <mxCell id="190" value="异常指标（结合周期异常）" style="shape=document;whiteSpace=wrap;strokeColor=none;fillColor=#12aab5;shadow=0;fontColor=#FFFFFF;fontFamily=Helvetica;fontStyle=0;html=1;fontSize=12;verticalAlign=middle;spacing=6;spacingBottom=22;" parent="187" vertex="1">
          <mxGeometry x="35.5" y="491.5" width="120" height="80" as="geometry" />
        </mxCell>
        <mxCell id="192" value="" style="strokeColor=#12AAB5;strokeWidth=3;html=1;endArrow=block;endFill=1;exitX=0.495;exitY=0.888;exitDx=0;exitDy=0;exitPerimeter=0;entryX=0.5;entryY=0;entryDx=0;entryDy=0;" parent="187" source="kB9sU5k_vF1AV_SdbhMd-220" target="kB9sU5k_vF1AV_SdbhMd-218" edge="1">
          <mxGeometry width="100" height="100" relative="1" as="geometry">
            <mxPoint x="-80" y="375" as="sourcePoint" />
            <mxPoint x="60" y="490" as="targetPoint" />
          </mxGeometry>
        </mxCell>
        <mxCell id="kB9sU5k_vF1AV_SdbhMd-218" value="拐点检测" style="whiteSpace=wrap;strokeColor=none;fillColor=#2f5b7c;shadow=0;fontColor=#FFFFFF;fontFamily=Helvetica;fontStyle=0;html=1;fontSize=12;spacing=6;verticalAlign=middle;" vertex="1" parent="187">
          <mxGeometry x="35.5" y="371.5" width="120" height="60" as="geometry" />
        </mxCell>
        <mxCell id="kB9sU5k_vF1AV_SdbhMd-220" value="周期信息" style="shape=document;whiteSpace=wrap;verticalAlign=middle;strokeColor=none;fillColor=#12aab5;shadow=0;fontColor=#FFFFFF;fontFamily=Helvetica;fontStyle=0;html=1;fontSize=12;spacing=6;spacingBottom=22;" vertex="1" parent="187">
          <mxGeometry x="25.5" y="155" width="120" height="80" as="geometry" />
        </mxCell>
        <mxCell id="kB9sU5k_vF1AV_SdbhMd-238" value="" style="edgeStyle=segmentEdgeStyle;strokeColor=#2F5B7C;strokeWidth=3;html=1;endArrow=block;endFill=1;exitX=0.5;exitY=1;exitDx=0;exitDy=0;" edge="1" parent="187" source="kB9sU5k_vF1AV_SdbhMd-218">
          <mxGeometry width="100" height="100" relative="1" as="geometry">
            <mxPoint x="94.94" y="441.5" as="sourcePoint" />
            <mxPoint x="95.5" y="491.5" as="targetPoint" />
          </mxGeometry>
        </mxCell>
        <mxCell id="193" value="&lt;font color=&quot;#23497d&quot;&gt;根因指标探测&lt;/font&gt;" style="swimlane;whiteSpace=wrap;fillColor=none;swimlaneFillColor=#BAC8D3;fontColor=#2F5B7C;fontFamily=Tahoma;html=1;strokeColor=none;opacity=25;" parent="1" vertex="1">
          <mxGeometry x="500" y="88.5" width="170" height="650" as="geometry">
            <mxRectangle x="20" y="20" width="80" height="23" as="alternateBounds" />
          </mxGeometry>
        </mxCell>
        <mxCell id="195" value="指标拓扑构建" style="whiteSpace=wrap;strokeColor=none;fillColor=#2f5b7c;shadow=0;fontColor=#FFFFFF;fontFamily=Helvetica;fontStyle=0;html=1;fontSize=12;spacing=6;verticalAlign=middle;" parent="193" vertex="1">
          <mxGeometry x="30" y="220" width="120" height="60" as="geometry" />
        </mxCell>
        <mxCell id="181" value="根因回溯探测" style="whiteSpace=wrap;fillColor=#2f5b7c;strokeColor=none;shadow=0;fontColor=#FFFFFF;fontFamily=Helvetica;fontStyle=0;html=1;fontSize=12;spacing=6;verticalAlign=middle;" parent="193" vertex="1">
          <mxGeometry x="30" y="365" width="120" height="60" as="geometry" />
        </mxCell>
        <mxCell id="211" value="" style="edgeStyle=segmentEdgeStyle;strokeColor=#2F5B7C;strokeWidth=3;html=1;endArrow=block;endFill=1;" parent="193" target="181" edge="1">
          <mxGeometry x="144.5" y="220" width="100" height="100" as="geometry">
            <mxPoint x="90" y="280.5" as="sourcePoint" />
            <mxPoint x="244.5" y="250" as="targetPoint" />
          </mxGeometry>
        </mxCell>
        <mxCell id="kB9sU5k_vF1AV_SdbhMd-226" value="根因指标" style="shape=document;whiteSpace=wrap;strokeColor=none;fillColor=#12aab5;shadow=0;fontColor=#FFFFFF;fontFamily=Helvetica;fontStyle=0;html=1;fontSize=12;verticalAlign=middle;spacing=6;spacingBottom=22;" vertex="1" parent="193">
          <mxGeometry x="30" y="471.5" width="120" height="80" as="geometry" />
        </mxCell>
        <mxCell id="kB9sU5k_vF1AV_SdbhMd-229" value="" style="strokeColor=#12AAB5;strokeWidth=3;html=1;endArrow=block;endFill=1;entryX=0.5;entryY=0;entryDx=0;entryDy=0;exitX=0.5;exitY=1;exitDx=0;exitDy=0;" edge="1" parent="193" source="181" target="kB9sU5k_vF1AV_SdbhMd-226">
          <mxGeometry width="100" height="100" relative="1" as="geometry">
            <mxPoint x="90" y="431.5" as="sourcePoint" />
            <mxPoint x="86" y="487.5" as="targetPoint" />
          </mxGeometry>
        </mxCell>
        <mxCell id="196" value="应用问答总结" style="swimlane;whiteSpace=wrap;fillColor=none;swimlaneFillColor=#BAC8D3;fontColor=#2F5B7C;fontFamily=Tahoma;html=1;strokeColor=none;opacity=50;" parent="1" vertex="1">
          <mxGeometry x="984.5" y="88.5" width="160" height="650" as="geometry">
            <mxRectangle x="20" y="20" width="80" height="23" as="alternateBounds" />
          </mxGeometry>
        </mxCell>
        <mxCell id="197" value="Outbounding Management" style="shape=document;whiteSpace=wrap;verticalAlign=middle;strokeColor=none;fillColor=#12aab5;shadow=0;fontColor=#FFFFFF;fontFamily=Helvetica;fontStyle=0;html=1;fontSize=12;spacing=6;spacingBottom=22;" parent="196" vertex="1">
          <mxGeometry x="20" y="130" width="120" height="80" as="geometry" />
        </mxCell>
        <mxCell id="198" value="Resources Allocation" style="whiteSpace=wrap;strokeColor=none;fillColor=#2f5b7c;shadow=0;fontColor=#FFFFFF;fontFamily=Helvetica;fontStyle=0;html=1;fontSize=12;spacing=6;verticalAlign=middle;" parent="196" vertex="1">
          <mxGeometry x="20" y="255" width="120" height="60" as="geometry" />
        </mxCell>
        <mxCell id="199" value="Long Term Strategy" style="whiteSpace=wrap;strokeColor=none;fillColor=#2f5b7c;shadow=0;fontColor=#FFFFFF;fontFamily=Helvetica;fontStyle=0;html=1;fontSize=12;spacing=6;verticalAlign=middle;" parent="196" vertex="1">
          <mxGeometry x="20" y="400" width="120" height="60" as="geometry" />
        </mxCell>
        <mxCell id="200" value="" style="edgeStyle=segmentEdgeStyle;strokeColor=#2F5B7C;strokeWidth=3;html=1;endArrow=block;endFill=1;" parent="196" source="198" target="199" edge="1">
          <mxGeometry width="100" height="100" relative="1" as="geometry">
            <mxPoint x="30" y="570" as="sourcePoint" />
            <mxPoint x="130" y="470" as="targetPoint" />
          </mxGeometry>
        </mxCell>
        <mxCell id="201" value="" style="edgeStyle=segmentEdgeStyle;entryX=0.25;entryY=0;strokeColor=#12AAB5;strokeWidth=3;html=1;endArrow=block;endFill=1;" parent="196" source="197" target="198" edge="1">
          <mxGeometry width="100" height="100" relative="1" as="geometry">
            <mxPoint x="-120" y="260" as="sourcePoint" />
            <mxPoint x="-20" y="160" as="targetPoint" />
          </mxGeometry>
        </mxCell>
        <mxCell id="202" value="" style="edgeStyle=segmentEdgeStyle;strokeColor=#2F5B7C;strokeWidth=3;html=1;endArrow=block;endFill=1;" parent="1" source="171" target="184" edge="1">
          <mxGeometry x="164.5" y="178.5" width="100" height="100" as="geometry">
            <mxPoint x="224.5" y="248.5" as="sourcePoint" />
            <mxPoint x="324.5" y="148.5" as="targetPoint" />
          </mxGeometry>
        </mxCell>
        <mxCell id="205" value="" style="edgeStyle=segmentEdgeStyle;strokeColor=#12AAB5;strokeWidth=3;html=1;endArrow=block;endFill=1;entryX=0;entryY=0.5;entryDx=0;entryDy=0;" parent="1" source="185" target="kB9sU5k_vF1AV_SdbhMd-218" edge="1">
          <mxGeometry x="234.5" y="433.5" width="100" height="100" as="geometry">
            <mxPoint x="384.5" y="818.5" as="sourcePoint" />
            <mxPoint x="300" y="570" as="targetPoint" />
            <Array as="points">
              <mxPoint x="270" y="490" />
            </Array>
          </mxGeometry>
        </mxCell>
        <mxCell id="207" value="" style="edgeStyle=segmentEdgeStyle;strokeColor=#2F5B7C;strokeWidth=3;html=1;endArrow=block;endFill=1;entryX=0;entryY=0.5;entryDx=0;entryDy=0;" parent="1" source="184" target="kB9sU5k_vF1AV_SdbhMd-220" edge="1">
          <mxGeometry x="324.5" y="283.5" width="100" height="100" as="geometry">
            <mxPoint x="454.5" y="298.5" as="sourcePoint" />
            <mxPoint x="450" y="320" as="targetPoint" />
            <Array as="points" />
          </mxGeometry>
        </mxCell>
        <mxCell id="208" value="" style="edgeStyle=segmentEdgeStyle;strokeColor=#12AAB5;strokeWidth=3;html=1;endArrow=block;endFill=1;exitX=1;exitY=0.5;exitDx=0;exitDy=0;entryX=0;entryY=0.5;entryDx=0;entryDy=0;" parent="1" source="190" target="195" edge="1">
          <mxGeometry x="484.5" y="178.5" width="100" height="100" as="geometry">
            <mxPoint x="484.5" y="178.55555555555554" as="sourcePoint" />
            <mxPoint x="544.5" y="148.5" as="targetPoint" />
            <Array as="points">
              <mxPoint x="500" y="339" />
            </Array>
          </mxGeometry>
        </mxCell>
        <mxCell id="216" value="" style="edgeStyle=segmentEdgeStyle;strokeColor=#2F5B7C;strokeWidth=3;html=1;endArrow=block;endFill=1;" parent="1" target="199" edge="1">
          <mxGeometry x="964.5" y="423.5" width="100" height="100" as="geometry">
            <mxPoint x="964.5" y="423.55555555555543" as="sourcePoint" />
            <mxPoint x="1194.5" y="398.5" as="targetPoint" />
          </mxGeometry>
        </mxCell>
        <mxCell id="217" value="" style="edgeStyle=segmentEdgeStyle;strokeColor=#12AAB5;strokeWidth=3;html=1;endArrow=block;endFill=1;" parent="1" source="177" target="197" edge="1">
          <mxGeometry x="964.5" y="178.5" width="100" height="100" as="geometry">
            <mxPoint x="854.5" y="348.5" as="sourcePoint" />
            <mxPoint x="954.5" y="248.5" as="targetPoint" />
          </mxGeometry>
        </mxCell>
        <mxCell id="kB9sU5k_vF1AV_SdbhMd-233" value="" style="edgeStyle=segmentEdgeStyle;strokeColor=#12AAB5;strokeWidth=3;html=1;endArrow=block;endFill=1;exitX=1.005;exitY=0.411;exitDx=0;exitDy=0;entryX=0;entryY=0.5;entryDx=0;entryDy=0;exitPerimeter=0;" edge="1" parent="1" source="kB9sU5k_vF1AV_SdbhMd-226" target="182">
          <mxGeometry x="484.5" y="178.5" width="100" height="100" as="geometry">
            <mxPoint x="660" y="591" as="sourcePoint" />
            <mxPoint x="700" y="400" as="targetPoint" />
            <Array as="points">
              <mxPoint x="651" y="591" />
              <mxPoint x="670" y="591" />
              <mxPoint x="670" y="338" />
            </Array>
          </mxGeometry>
        </mxCell>
        <mxCell id="kB9sU5k_vF1AV_SdbhMd-237" value="" style="edgeStyle=segmentEdgeStyle;strokeColor=#12AAB5;strokeWidth=3;html=1;endArrow=block;endFill=1;exitX=1;exitY=0.5;exitDx=0;exitDy=0;entryX=0;entryY=0.5;entryDx=0;entryDy=0;" edge="1" parent="1" source="kB9sU5k_vF1AV_SdbhMd-234" target="kB9sU5k_vF1AV_SdbhMd-236">
          <mxGeometry x="964.5" y="178.5" width="100" height="100" as="geometry">
            <mxPoint x="975" y="189" as="sourcePoint" />
            <mxPoint x="1075" y="229" as="targetPoint" />
            <Array as="points">
              <mxPoint x="840" y="610" />
              <mxPoint x="840" y="330" />
            </Array>
          </mxGeometry>
        </mxCell>
        <mxCell id="kB9sU5k_vF1AV_SdbhMd-239" value="周期异常信息" style="shape=document;whiteSpace=wrap;verticalAlign=middle;strokeColor=none;fillColor=#12aab5;shadow=0;fontColor=#FFFFFF;fontFamily=Helvetica;fontStyle=0;html=1;fontSize=12;spacing=6;spacingBottom=22;" vertex="1" parent="1">
          <mxGeometry x="214.5" y="363.5" width="120" height="80" as="geometry" />
        </mxCell>
      </root>
    </mxGraphModel>
  </diagram>
</mxfile>
